<svg width="528" height="528" viewBox="0 0 528 528" fill="none" xmlns="http://www.w3.org/2000/svg">
<g filter="url(#filter0_i_4_65)">
<path d="M82.5 479.061H445.17C472.56 479.061 494.835 456.786 494.835 429.396V330.396C494.835 321.644 491.358 313.25 485.169 307.061C478.981 300.873 470.587 297.396 461.835 297.396H65.835C57.0828 297.396 48.6892 300.873 42.5005 307.061C36.3118 313.25 32.835 321.644 32.835 330.396V429.396C32.835 456.951 55.11 479.061 82.5 479.061Z" fill="url(#paint0_linear_4_65)"/>
</g>
<g filter="url(#filter1_f_4_65)">
<path d="M128.37 452.215C354.502 452.215 420.684 421.393 420.684 406.296C420.684 391.215 343.2 360.36 128.37 360.36V452.215Z" fill="url(#paint1_radial_4_65)"/>
</g>
<path d="M461.835 281.061H65.835C57.0828 281.061 48.6892 284.538 42.5005 290.727C36.3118 296.915 32.835 305.309 32.835 314.061V347.061H494.67V314.061C494.67 295.911 479.985 281.061 461.835 281.061Z" fill="url(#paint2_linear_4_65)"/>
<path d="M461.835 281.061H65.835C57.0828 281.061 48.6892 284.538 42.5005 290.727C36.3118 296.915 32.835 305.309 32.835 314.061V347.061H494.67V314.061C494.67 295.911 479.985 281.061 461.835 281.061Z" fill="url(#paint3_linear_4_65)"/>
<g filter="url(#filter2_i_4_65)">
<path d="M399.96 115.071L117.315 397.716C114.015 401.016 114.015 406.296 117.315 409.596C120.615 412.896 125.895 412.896 129.195 409.596L411.84 126.951C415.14 123.651 415.14 118.371 411.84 115.071C408.54 111.771 403.26 111.771 399.96 115.071Z" fill="url(#paint4_linear_4_65)"/>
<path d="M399.96 115.071L117.315 397.716C114.015 401.016 114.015 406.296 117.315 409.596C120.615 412.896 125.895 412.896 129.195 409.596L411.84 126.951C415.14 123.651 415.14 118.371 411.84 115.071C408.54 111.771 403.26 111.771 399.96 115.071Z" fill="url(#paint5_radial_4_65)"/>
</g>
<path d="M376.365 411.576C388.905 424.116 408.54 425.106 417.945 412.896C482.295 328.746 475.53 207.306 397.98 129.756C320.43 52.206 198.66 45.276 114.51 109.626C102.3 118.866 103.29 138.501 115.83 151.041L128.37 163.581L253.424 289.69L363.66 398.871L376.365 411.576Z" fill="url(#paint6_linear_4_65)"/>
<path d="M376.365 411.576C388.905 424.116 408.54 425.106 417.945 412.896C482.295 328.746 475.53 207.306 397.98 129.756C320.43 52.206 198.66 45.276 114.51 109.626C102.3 118.866 103.29 138.501 115.83 151.041L128.37 163.581L253.424 289.69L363.66 398.871L376.365 411.576Z" fill="url(#paint7_radial_4_65)"/>
<path d="M376.365 411.576C388.905 424.116 408.54 425.106 417.945 412.896C482.295 328.746 475.53 207.306 397.98 129.756C320.43 52.206 198.66 45.276 114.51 109.626C102.3 118.866 103.29 138.501 115.83 151.041L128.37 163.581L253.424 289.69L363.66 398.871L376.365 411.576Z" fill="url(#paint8_linear_4_65)"/>
<path d="M376.365 411.576C388.905 424.116 408.54 425.106 417.945 412.896C482.295 328.746 475.53 207.306 397.98 129.756C320.43 52.206 198.66 45.276 114.51 109.626C102.3 118.866 103.29 138.501 115.83 151.041L128.37 163.581L253.424 289.69L363.66 398.871L376.365 411.576Z" fill="url(#paint9_linear_4_65)"/>
<path d="M376.365 411.576C388.905 424.116 408.54 425.106 417.945 412.896C482.295 328.746 475.53 207.306 397.98 129.756C320.43 52.206 198.66 45.276 114.51 109.626C102.3 118.866 103.29 138.501 115.83 151.041L128.37 163.581L253.424 289.69L363.66 398.871L376.365 411.576Z" fill="url(#paint10_radial_4_65)"/>
<path d="M399.679 131.835C462.148 197.34 446.358 316.008 363.495 398.871L304.491 339.834L304.59 339.801C386.43 257.977 427.993 166.254 399.679 131.851V131.835Z" fill="url(#paint11_linear_4_65)"/>
<path d="M399.679 131.835C462.148 197.34 446.358 316.008 363.495 398.871L304.491 339.834L304.59 339.801C386.43 257.977 427.993 166.254 399.679 131.851V131.835Z" fill="url(#paint12_linear_4_65)"/>
<path d="M395.175 127.33C329.654 64.9605 211.2 80.751 128.37 163.581L186.945 222.618C268.867 140.745 360.723 99 395.175 127.33Z" fill="url(#paint13_linear_4_65)"/>
<path d="M395.175 127.33C329.654 64.9605 211.2 80.751 128.37 163.581L186.945 222.618C268.867 140.745 360.723 99 395.175 127.33Z" fill="url(#paint14_linear_4_65)"/>
<g filter="url(#filter3_f_4_65)">
<path d="M121.918 402.072L213.906 309.952" stroke="url(#paint15_linear_4_65)" stroke-width="0.25" stroke-linecap="round"/>
</g>
<defs>
<filter id="filter0_i_4_65" x="32.685" y="297.396" width="462.15" height="181.665" filterUnits="userSpaceOnUse" color-interpolation-filters="sRGB">
<feFlood flood-opacity="0" result="BackgroundImageFix"/>
<feBlend mode="normal" in="SourceGraphic" in2="BackgroundImageFix" result="shape"/>
<feColorMatrix in="SourceAlpha" type="matrix" values="0 0 0 0 0 0 0 0 0 0 0 0 0 0 0 0 0 0 127 0" result="hardAlpha"/>
<feOffset dx="-0.15"/>
<feGaussianBlur stdDeviation="0.25"/>
<feComposite in2="hardAlpha" operator="arithmetic" k2="-1" k3="1"/>
<feColorMatrix type="matrix" values="0 0 0 0 1 0 0 0 0 0.886275 0 0 0 0 0.45098 0 0 0 1 0"/>
<feBlend mode="normal" in2="shape" result="effect1_innerShadow_4_65"/>
</filter>
<filter id="filter1_f_4_65" x="127.37" y="359.36" width="294.314" height="93.8555" filterUnits="userSpaceOnUse" color-interpolation-filters="sRGB">
<feFlood flood-opacity="0" result="BackgroundImageFix"/>
<feBlend mode="normal" in="SourceGraphic" in2="BackgroundImageFix" result="shape"/>
<feGaussianBlur stdDeviation="0.5" result="effect1_foregroundBlur_4_65"/>
</filter>
<filter id="filter2_i_4_65" x="114.84" y="112.396" width="299.475" height="299.675" filterUnits="userSpaceOnUse" color-interpolation-filters="sRGB">
<feFlood flood-opacity="0" result="BackgroundImageFix"/>
<feBlend mode="normal" in="SourceGraphic" in2="BackgroundImageFix" result="shape"/>
<feColorMatrix in="SourceAlpha" type="matrix" values="0 0 0 0 0 0 0 0 0 0 0 0 0 0 0 0 0 0 127 0" result="hardAlpha"/>
<feOffset dy="-0.2"/>
<feGaussianBlur stdDeviation="0.25"/>
<feComposite in2="hardAlpha" operator="arithmetic" k2="-1" k3="1"/>
<feColorMatrix type="matrix" values="0 0 0 0 0.498039 0 0 0 0 0.262745 0 0 0 0 0.109804 0 0 0 1 0"/>
<feBlend mode="normal" in2="shape" result="effect1_innerShadow_4_65"/>
</filter>
<filter id="filter3_f_4_65" x="121.543" y="309.577" width="92.7375" height="92.8695" filterUnits="userSpaceOnUse" color-interpolation-filters="sRGB">
<feFlood flood-opacity="0" result="BackgroundImageFix"/>
<feBlend mode="normal" in="SourceGraphic" in2="BackgroundImageFix" result="shape"/>
<feGaussianBlur stdDeviation="0.125" result="effect1_foregroundBlur_4_65"/>
</filter>
<linearGradient id="paint0_linear_4_65" x1="445.648" y1="465.646" x2="198.313" y2="327.146" gradientUnits="userSpaceOnUse">
<stop stop-color="#FFC250"/>
<stop offset="1" stop-color="#FFB000"/>
</linearGradient>
<radialGradient id="paint1_radial_4_65" cx="0" cy="0" r="1" gradientUnits="userSpaceOnUse" gradientTransform="translate(400.29 400.521) rotate(180) scale(317.173 87.0624)">
<stop stop-color="#D7731C"/>
<stop offset="1" stop-color="#D7731C" stop-opacity="0"/>
</radialGradient>
<linearGradient id="paint2_linear_4_65" x1="32.835" y1="314.127" x2="494.703" y2="314.127" gradientUnits="userSpaceOnUse">
<stop stop-color="#49ADE8"/>
<stop offset="1" stop-color="#6CEDFD"/>
</linearGradient>
<linearGradient id="paint3_linear_4_65" x1="498.283" y1="324.192" x2="481.024" y2="324.192" gradientUnits="userSpaceOnUse">
<stop stop-color="#7DF8FF"/>
<stop offset="1" stop-color="#7DF8FF" stop-opacity="0"/>
</linearGradient>
<linearGradient id="paint4_linear_4_65" x1="412.285" y1="115.236" x2="117.744" y2="409.777" gradientUnits="userSpaceOnUse">
<stop stop-color="#A66459"/>
<stop offset="0.589" stop-color="#8A3F42"/>
<stop offset="1" stop-color="#7B4230"/>
</linearGradient>
<radialGradient id="paint5_radial_4_65" cx="0" cy="0" r="1" gradientUnits="userSpaceOnUse" gradientTransform="translate(413.358 114.015) rotate(139.857) scale(15.2028 9.74764)">
<stop stop-color="#C18E80"/>
<stop offset="0.993" stop-color="#C18E80" stop-opacity="0"/>
</radialGradient>
<linearGradient id="paint6_linear_4_65" x1="364.98" y1="222.288" x2="217.503" y2="256.327" gradientUnits="userSpaceOnUse">
<stop stop-color="#FF6072"/>
<stop offset="1" stop-color="#EC3A51"/>
</linearGradient>
<radialGradient id="paint7_radial_4_65" cx="0" cy="0" r="1" gradientUnits="userSpaceOnUse" gradientTransform="translate(266.844 302.872) rotate(-23.165) scale(211.881 334.176)">
<stop offset="0.768" stop-color="#EA596B" stop-opacity="0"/>
<stop offset="1" stop-color="#EA596B"/>
</radialGradient>
<linearGradient id="paint8_linear_4_65" x1="215.803" y1="276.655" x2="263.571" y2="228.888" gradientUnits="userSpaceOnUse">
<stop stop-color="#CB3A43"/>
<stop offset="0.481" stop-color="#D92E49"/>
<stop offset="0.671" stop-color="#D92E49" stop-opacity="0"/>
</linearGradient>
<linearGradient id="paint9_linear_4_65" x1="489.736" y1="369.369" x2="373.609" y2="286.011" gradientUnits="userSpaceOnUse">
<stop stop-color="#EE442B"/>
<stop offset="1" stop-color="#EE442B" stop-opacity="0"/>
</linearGradient>
<radialGradient id="paint10_radial_4_65" cx="0" cy="0" r="1" gradientUnits="userSpaceOnUse" gradientTransform="translate(337.133 272.842) rotate(-119.416) scale(222.568 371.309)">
<stop stop-color="#CA3E4B" stop-opacity="0"/>
<stop offset="0.611" stop-color="#CA3E4B" stop-opacity="0"/>
<stop offset="1" stop-color="#CA3E4B"/>
</radialGradient>
<linearGradient id="paint11_linear_4_65" x1="248.441" y1="285.202" x2="395.918" y2="137.725" gradientUnits="userSpaceOnUse">
<stop stop-color="#E5DFEA"/>
<stop offset="1" stop-color="#FEFCFF"/>
</linearGradient>
<linearGradient id="paint12_linear_4_65" x1="225.753" y1="298.6" x2="271.656" y2="252.714" gradientUnits="userSpaceOnUse">
<stop stop-color="#C9B9C9"/>
<stop offset="0.612" stop-color="#D4C9DC"/>
<stop offset="0.815" stop-color="#D4C9DC" stop-opacity="0"/>
</linearGradient>
<linearGradient id="paint13_linear_4_65" x1="248.44" y1="285.202" x2="395.917" y2="137.725" gradientUnits="userSpaceOnUse">
<stop stop-color="#E5DFEA"/>
<stop offset="1" stop-color="#FEFCFF"/>
</linearGradient>
<linearGradient id="paint14_linear_4_65" x1="225.753" y1="298.6" x2="271.656" y2="252.714" gradientUnits="userSpaceOnUse">
<stop stop-color="#C9B9C9"/>
<stop offset="0.612" stop-color="#D4C9DC"/>
<stop offset="0.815" stop-color="#D4C9DC" stop-opacity="0"/>
</linearGradient>
<linearGradient id="paint15_linear_4_65" x1="128.304" y1="392.106" x2="224.053" y2="371.514" gradientUnits="userSpaceOnUse">
<stop stop-color="#7F5951"/>
<stop offset="1" stop-color="#7F5951" stop-opacity="0"/>
</linearGradient>
</defs>
</svg>
